{"glyphs":{":":{"x_min":0,"x_max":263,"ha":263,"o":"m 131 390 q 101 390 80 406 q 60 422 60 465 q 60 508 80 524 q 101 540 131 540 q 160 540 182 524 q 203 508 203 465 q 203 422 182 406 q 160 390 131 390 z m 131 -7 q 101 -7 80 9 q 60 25 60 68 q 60 111 80 127 q 101 143 131 143 q 160 143 182 127 q 203 111 203 68 q 203 25 182 9 q 160 -7 131 -7 z"},"$":{"x_min":0,"x_max":487,"ha":487,"o":"m 224 -79 l 224 41 q 157 44 118 65 q 78 86 60 118 q 43 149 43 182 q 43 222 68 240 q 94 258 126 258 q 128 186 151 144 q 174 103 224 93 l 224 318 q 160 348 125 376 q 90 405 76 438 q 61 472 61 515 q 61 586 108 630 q 154 674 224 683 l 224 760 l 272 760 l 272 684 q 348 682 384 652 q 421 623 421 584 q 421 554 400 534 q 378 513 329 513 q 329 554 315 589 q 301 624 272 633 l 272 425 q 316 402 356 378 q 395 353 420 318 q 445 282 445 228 q 445 153 398 104 q 352 54 272 43 l 272 -79 z m 224 451 l 224 635 q 198 630 180 608 q 163 586 163 552 q 163 519 176 496 q 190 472 224 451 z m 272 94 q 305 103 322 128 q 340 154 340 189 q 340 224 324 249 q 308 274 272 296 z"},"?":{"x_min":0,"x_max":484,"ha":484,"o":"m 186 223 l 170 349 q 220 372 246 404 q 273 435 283 473 q 293 511 293 552 q 293 602 276 634 q 258 667 224 667 q 186 667 170 631 q 153 595 153 537 q 98 537 66 553 q 33 569 33 607 q 33 654 78 689 q 124 724 221 724 q 317 724 376 676 q 435 628 435 542 q 435 461 392 412 q 350 362 263 322 l 247 223 z m 215 -7 q 185 -7 164 9 q 143 25 143 68 q 143 111 164 127 q 185 143 215 143 q 244 143 266 127 q 288 111 288 68 q 288 25 266 9 q 244 -7 215 -7 z"},"<":{"x_min":0,"x_max":465,"ha":465,"o":"m 419 105 l 46 338 l 46 377 l 419 611 l 419 534 l 140 357 l 419 182 z"},"'":{"x_min":0,"x_max":257,"ha":257,"o":"m 99 448 l 59 714 l 198 714 l 158 448 z"},"=":{"x_min":0,"x_max":465,"ha":465,"o":"m 44 416 l 44 483 l 421 483 l 421 416 z m 44 231 l 44 298 l 421 298 l 421 231 z"},"a":{"x_min":0,"x_max":525,"ha":525,"o":"m 175 -10 q 118 -10 78 30 q 39 69 39 152 q 39 233 88 272 q 136 311 233 315 l 305 318 l 305 373 q 305 428 294 459 q 282 490 248 490 q 216 490 203 460 q 190 431 190 381 q 75 381 75 448 q 75 482 100 504 q 124 526 165 537 q 206 548 257 548 q 348 548 394 510 q 441 472 441 378 l 441 121 q 441 80 452 65 q 464 50 494 50 l 497 50 l 497 0 l 331 0 l 313 72 l 305 72 q 286 45 268 26 q 251 8 230 -1 q 208 -10 175 -10 z m 226 57 q 262 57 284 94 q 306 132 306 191 l 306 267 l 268 264 q 217 261 198 232 q 178 204 178 148 q 178 104 190 80 q 201 57 226 57 z"},"L":{"x_min":0,"x_max":571,"ha":571,"o":"m 24 0 l 24 50 l 60 50 q 78 50 92 62 q 105 74 105 112 l 105 600 q 105 639 91 652 q 77 664 56 664 l 24 664 l 24 714 l 328 714 l 328 664 l 295 664 q 270 664 258 652 q 247 640 247 604 l 247 58 l 409 58 q 438 58 455 80 q 472 102 481 146 l 496 221 l 543 221 l 538 0 z"},"3":{"x_min":0,"x_max":487,"ha":487,"o":"m 218 -10 q 128 -10 78 22 q 27 55 27 112 q 27 148 49 168 q 71 187 102 187 q 102 128 129 92 q 156 56 209 56 q 237 56 261 70 q 285 83 300 116 q 315 148 315 204 q 315 265 282 303 q 248 341 184 341 l 129 341 l 129 399 l 185 399 q 243 399 268 440 q 294 480 294 548 q 294 603 275 634 q 256 666 222 666 q 192 666 175 644 q 158 622 151 588 q 144 553 144 514 q 95 514 66 532 q 36 550 36 592 q 36 627 58 657 q 79 687 122 706 q 164 724 229 724 q 321 724 375 682 q 429 639 429 560 q 429 492 392 446 q 354 400 299 380 q 335 372 370 352 q 405 333 428 296 q 451 260 451 202 q 451 122 418 76 q 385 30 332 10 q 279 -10 218 -10 z"},";":{"x_min":0,"x_max":263,"ha":263,"o":"m 131 390 q 101 390 80 406 q 60 422 60 465 q 60 508 80 524 q 101 540 131 540 q 160 540 182 524 q 203 508 203 465 q 203 422 182 406 q 160 390 131 390 z m 47 -154 l 47 -106 q 84 -90 104 -72 q 123 -53 123 -25 q 123 -11 114 -4 q 104 4 92 12 q 80 21 70 36 q 61 50 61 78 q 61 110 80 126 q 98 143 124 143 q 162 143 182 114 q 202 86 202 36 q 202 -26 167 -77 q 132 -128 47 -154 z"},"J":{"x_min":0,"x_max":350,"ha":350,"o":"m -17 -240 l -17 -185 l -1 -185 q 26 -185 51 -168 q 76 -151 92 -112 q 109 -72 109 -4 l 109 603 q 109 640 95 652 q 81 664 64 664 l 28 664 l 28 714 l 332 714 l 332 664 l 297 664 q 278 664 264 652 q 250 639 250 600 l 250 -3 q 250 -71 230 -116 q 211 -162 178 -189 q 145 -216 103 -228 q 61 -240 16 -240 z"},"V":{"x_min":0,"x_max":609,"ha":609,"o":"m 253 0 l 74 614 q 66 644 52 654 q 38 664 21 664 l 0 664 l 0 714 l 287 714 l 287 664 l 252 664 q 236 664 226 656 q 216 649 216 633 q 216 622 220 608 q 223 595 226 584 l 309 273 q 317 244 324 209 q 332 174 337 145 q 342 173 350 206 q 358 238 367 270 l 452 575 q 456 591 460 606 q 464 622 464 633 q 464 664 428 664 l 388 664 l 388 714 l 609 714 l 609 664 l 579 664 q 560 664 549 650 q 538 636 525 589 l 352 0 z"},"\"":{"x_min":0,"x_max":449,"ha":449,"o":"m 292 448 l 251 714 l 390 714 l 350 448 z m 99 448 l 59 714 l 198 714 l 158 448 z"},"7":{"x_min":0,"x_max":487,"ha":487,"o":"m 137 0 l 371 612 l 150 612 q 126 612 114 599 q 103 586 100 560 l 94 511 l 39 511 l 44 714 l 452 714 l 452 670 l 218 0 z"},"S":{"x_min":0,"x_max":508,"ha":508,"o":"m 238 -10 q 157 -10 112 10 q 66 31 47 62 q 28 94 28 128 q 28 176 58 196 q 87 217 126 217 q 127 132 164 89 q 200 46 252 46 q 302 46 329 78 q 356 110 356 157 q 356 212 318 244 q 280 276 208 311 q 118 354 82 406 q 46 457 46 532 q 46 590 74 634 q 103 677 152 700 q 200 724 262 724 q 326 724 368 707 q 409 690 430 663 q 450 636 450 606 q 450 572 425 551 q 400 530 344 530 q 344 562 334 594 q 323 625 302 646 q 280 666 247 666 q 209 666 185 640 q 161 615 161 568 q 161 539 172 515 q 184 491 216 468 q 247 445 306 418 q 397 376 435 326 q 473 277 473 201 q 473 136 444 89 q 415 42 362 16 q 309 -10 238 -10 z"},"}":{"x_min":0,"x_max":385,"ha":385,"o":"m 24 -126 l 24 -75 l 59 -75 q 96 -75 108 -50 q 120 -24 120 25 l 120 196 q 120 290 216 316 l 216 322 q 165 334 142 364 q 120 394 120 441 l 120 611 q 120 659 108 684 q 96 710 59 710 l 24 710 l 24 760 l 109 760 q 183 760 222 722 q 260 685 260 615 l 260 443 q 260 404 274 384 q 287 363 310 355 q 333 347 361 346 l 361 290 q 333 288 310 280 q 287 273 274 252 q 260 232 260 193 l 260 22 q 260 -46 222 -86 q 183 -126 109 -126 z"},"Z":{"x_min":0,"x_max":585,"ha":585,"o":"m 36 0 l 36 47 l 364 656 l 193 656 q 152 656 138 631 q 125 606 122 567 l 118 515 l 53 515 l 58 714 l 526 714 l 526 666 l 197 58 l 385 58 q 422 58 441 72 q 460 86 468 108 q 476 130 478 155 l 482 199 l 546 199 l 542 0 z"},"x":{"x_min":0,"x_max":566,"ha":566,"o":"m 10 0 l 10 50 l 18 50 q 50 50 68 63 q 86 76 112 114 l 221 270 l 112 433 q 94 459 76 472 q 58 486 37 486 l 26 486 l 26 536 l 301 536 l 301 486 l 298 486 q 270 486 260 478 q 251 469 251 457 q 251 446 256 436 q 261 426 271 411 l 320 336 l 360 400 q 369 416 376 429 q 382 442 382 456 q 382 474 370 480 q 359 486 340 486 l 336 486 l 336 536 l 536 536 l 536 486 l 529 486 q 504 486 487 474 q 470 461 442 421 l 352 292 l 480 103 q 499 74 516 62 q 533 50 549 50 l 561 50 l 561 0 l 280 0 l 280 50 l 284 50 q 336 50 336 83 q 336 94 330 108 q 324 122 303 152 l 254 227 l 196 136 q 187 122 182 110 q 176 98 176 84 q 176 68 188 59 q 200 50 229 50 l 231 50 l 231 0 z"},")":{"x_min":0,"x_max":352,"ha":352,"o":"m 27 -136 l 27 -76 q 80 -35 108 26 q 137 88 148 163 q 158 238 158 317 q 158 396 148 471 q 137 546 108 608 q 80 669 27 710 l 27 769 q 176 705 239 594 q 302 484 302 317 q 302 151 239 40 q 176 -72 27 -136 z"},"&":{"x_min":0,"x_max":702,"ha":702,"o":"m 260 -10 q 155 -10 97 46 q 39 101 39 200 q 39 258 61 296 q 83 333 118 358 q 152 382 192 400 q 157 445 142 483 q 126 521 126 570 q 126 640 170 682 q 213 724 301 724 q 359 724 396 704 q 433 684 450 652 q 468 620 468 582 q 468 520 436 480 q 404 440 338 405 l 464 240 q 471 273 474 311 q 477 349 477 382 l 477 425 l 666 425 l 666 374 l 651 374 q 632 374 614 371 q 596 368 582 355 q 568 342 560 311 q 548 247 522 181 l 610 78 q 624 61 642 56 q 660 50 682 50 l 690 50 l 690 0 l 514 0 l 452 79 q 422 42 374 16 q 326 -10 260 -10 z m 301 447 q 337 472 352 503 q 368 534 368 581 q 368 619 353 644 q 338 668 306 668 q 274 668 259 644 q 244 620 244 580 q 244 545 258 514 q 273 484 301 447 z m 288 56 q 330 56 362 76 q 393 96 413 125 l 229 355 q 198 330 185 292 q 172 254 172 201 q 172 133 204 94 q 236 56 288 56 z"},"_":{"x_min":0,"x_max":399,"ha":399,"o":"m -5 -142 l -5 -83 l 403 -83 l 403 -142 z"},"v":{"x_min":0,"x_max":530,"ha":530,"o":"m 210 0 l 71 436 q 61 466 46 476 q 32 486 4 486 l 4 536 l 273 536 l 273 486 l 245 486 q 209 486 209 453 q 209 440 212 428 q 214 416 217 406 l 275 219 q 285 186 292 152 q 300 118 304 93 q 308 114 314 143 q 321 172 330 200 l 385 393 q 390 412 394 426 q 397 440 397 455 q 397 486 358 486 l 340 486 l 340 536 l 530 536 l 530 486 l 512 486 q 492 486 481 472 q 470 457 456 411 l 331 0 z"},"O":{"x_min":0,"x_max":688,"ha":688,"o":"m 345 -10 q 245 -10 179 36 q 113 82 80 165 q 48 248 48 359 q 48 470 80 552 q 113 634 180 680 q 246 725 346 725 q 440 725 506 680 q 572 634 606 552 q 640 469 640 358 q 640 247 606 164 q 572 82 506 36 q 440 -10 345 -10 z m 345 52 q 425 52 458 133 q 490 214 490 358 q 490 502 458 582 q 426 663 346 663 q 266 663 232 582 q 198 502 198 358 q 198 214 232 133 q 266 52 345 52 z"},"(":{"x_min":0,"x_max":352,"ha":352,"o":"m 325 -136 q 177 -72 113 40 q 49 151 49 317 q 49 484 113 594 q 177 705 325 769 l 325 710 q 271 669 242 608 q 214 546 204 471 q 194 396 194 317 q 194 238 204 163 q 214 88 242 26 q 271 -35 325 -76 z"},"C":{"x_min":0,"x_max":586,"ha":586,"o":"m 347 -10 q 248 -10 182 36 q 115 82 82 164 q 48 247 48 358 q 48 467 82 550 q 116 632 183 678 q 250 724 349 724 q 449 724 500 690 q 550 656 550 608 q 550 573 522 550 q 494 526 439 526 q 439 559 430 590 q 421 622 400 642 q 378 663 341 663 q 261 663 230 582 q 198 502 198 358 q 198 210 237 136 q 276 63 370 63 q 414 63 446 78 q 477 92 498 114 q 520 136 536 159 q 550 145 550 118 q 550 92 532 62 q 514 32 470 11 q 425 -10 347 -10 z"},"W":{"x_min":0,"x_max":930,"ha":930,"o":"m 223 0 l 73 611 q 65 642 50 653 q 36 664 11 664 l 0 664 l 0 714 l 295 714 l 295 664 l 274 664 q 222 664 222 621 q 222 612 225 595 q 228 578 231 565 l 287 314 q 295 275 305 228 q 315 182 319 148 q 325 182 334 218 q 343 254 354 295 l 462 707 l 542 707 l 645 314 q 658 265 668 222 q 679 179 684 147 q 690 182 698 224 q 706 265 716 311 l 770 563 q 773 576 776 594 q 778 612 778 622 q 778 664 723 664 l 702 664 l 702 714 l 931 714 l 931 664 l 914 664 q 889 664 874 650 q 860 636 849 586 l 714 0 l 596 0 l 471 494 l 344 0 z"},"A":{"x_min":0,"x_max":658,"ha":658,"o":"m 4 0 l 4 50 l 14 50 q 37 50 53 64 q 69 78 83 125 l 272 714 l 395 714 l 580 111 q 590 76 607 63 q 624 50 648 50 l 658 50 l 658 0 l 368 0 l 368 50 l 398 50 q 415 50 427 59 q 439 68 439 87 q 439 98 436 113 q 433 128 430 138 l 401 236 l 191 236 l 167 150 q 164 138 160 120 q 155 103 155 90 q 155 50 197 50 l 231 50 l 231 0 z m 210 295 l 383 295 l 334 478 q 324 513 315 548 q 306 584 300 616 q 292 586 283 551 q 274 516 264 483 z"},"f":{"x_min":0,"x_max":357,"ha":357,"o":"m 16 0 l 16 50 l 36 50 q 48 50 62 54 q 76 59 86 74 q 97 88 97 117 l 97 472 l 20 472 l 20 536 l 97 536 l 97 576 q 97 668 140 719 q 183 770 278 770 q 334 770 364 760 q 395 749 407 732 q 419 716 419 697 q 419 668 396 650 q 374 632 319 632 q 319 649 316 668 q 312 688 303 702 q 294 715 278 715 q 255 715 244 686 q 233 657 233 592 l 233 536 l 353 536 l 353 472 l 233 472 l 233 117 q 233 88 243 74 q 253 59 267 54 q 281 50 294 50 l 336 50 l 336 0 z"},"Q":{"x_min":0,"x_max":688,"ha":688,"o":"m 504 -235 q 451 -235 402 -212 q 352 -190 318 -140 q 285 -90 279 -5 q 163 14 106 112 q 48 209 48 359 q 48 470 80 552 q 113 634 180 680 q 246 725 346 725 q 440 725 506 680 q 572 634 606 552 q 640 469 640 358 q 640 216 586 121 q 532 26 429 -1 q 434 -74 453 -112 q 472 -151 499 -166 q 526 -180 555 -180 l 568 -180 l 568 -235 z m 345 52 q 425 52 458 133 q 490 214 490 358 q 490 502 458 582 q 426 663 346 663 q 265 663 232 582 q 198 502 198 358 q 198 214 232 133 q 265 52 345 52 z"},"w":{"x_min":0,"x_max":745,"ha":745,"o":"m 174 0 l 62 433 q 53 465 40 476 q 26 486 0 486 l -2 486 l -2 536 l 255 536 l 255 486 l 245 486 q 219 486 206 478 q 192 469 192 444 q 192 436 194 424 q 197 411 200 400 l 230 262 q 238 226 245 186 q 252 146 256 123 l 259 123 q 262 147 270 180 q 277 212 286 242 l 375 532 l 432 532 l 515 237 q 523 208 530 175 q 536 142 538 123 l 540 123 q 544 146 549 174 q 554 201 563 237 l 601 387 q 604 400 606 414 q 609 429 609 437 q 609 486 553 486 l 547 486 l 547 536 l 746 536 l 746 486 l 735 486 q 710 486 696 472 q 683 457 670 408 l 557 0 l 461 0 l 368 352 l 270 0 z"},"-":{"x_min":0,"x_max":270,"ha":270,"o":"m 22 224 l 22 322 l 249 322 l 249 224 z"},"E":{"x_min":0,"x_max":570,"ha":570,"o":"m 24 0 l 24 50 l 59 50 q 80 50 92 62 q 105 75 105 110 l 105 600 q 105 642 91 653 q 77 664 57 664 l 24 664 l 24 714 l 511 714 l 514 532 l 452 532 l 448 578 q 445 614 430 635 q 416 656 385 656 l 246 656 l 246 402 l 453 402 l 453 344 l 246 344 l 246 58 l 410 58 q 442 58 456 80 q 470 103 475 136 l 481 182 l 543 182 l 538 0 z"},"s":{"x_min":0,"x_max":422,"ha":422,"o":"m 202 -10 q 108 -10 67 20 q 26 51 26 102 q 26 143 52 158 q 78 174 106 174 q 106 113 132 80 q 159 46 204 46 q 248 46 268 67 q 287 88 287 120 q 287 153 264 174 q 241 195 185 218 q 109 250 72 287 q 35 324 35 392 q 35 469 86 508 q 138 547 222 547 q 304 547 340 518 q 375 490 375 453 q 375 422 356 405 q 336 388 292 388 q 292 439 270 466 q 248 492 210 492 q 180 492 160 476 q 141 459 141 428 q 141 404 150 388 q 160 372 184 358 q 208 344 250 327 q 315 300 354 263 q 393 226 393 159 q 393 81 344 36 q 294 -10 202 -10 z"},">":{"x_min":0,"x_max":465,"ha":465,"o":"m 46 105 l 46 182 l 325 357 l 46 534 l 46 611 l 419 377 l 419 338 z"},"l":{"x_min":0,"x_max":309,"ha":309,"o":"m 15 0 l 15 50 l 26 50 q 49 50 68 64 q 86 77 86 121 l 86 647 q 86 674 76 688 q 66 701 52 706 q 38 710 26 710 l 15 710 l 15 760 l 223 760 l 223 121 q 223 77 241 64 q 259 50 284 50 l 294 50 l 294 0 z"},"8":{"x_min":0,"x_max":487,"ha":487,"o":"m 239 -10 q 165 -10 118 15 q 71 40 48 82 q 26 125 26 176 q 26 250 63 293 q 100 336 157 363 q 105 395 75 438 q 45 480 45 544 q 45 592 66 633 q 86 674 130 699 q 175 724 248 724 q 342 724 390 676 q 437 628 437 556 q 437 491 406 452 q 375 414 321 386 q 394 346 428 301 q 462 256 462 184 q 462 94 403 42 q 344 -10 239 -10 z m 266 415 q 294 438 308 470 q 323 502 323 554 q 323 599 304 633 q 284 667 245 667 q 209 667 190 638 q 171 608 171 558 q 171 504 196 472 q 222 441 266 415 z m 242 46 q 283 46 308 79 q 334 112 334 168 q 334 218 304 255 q 273 292 209 329 q 180 305 162 268 q 145 232 145 179 q 145 115 172 80 q 198 46 242 46 z"},"\\":{"x_min":0,"x_max":251,"ha":251,"o":"m 187 -121 l 0 760 l 63 760 l 251 -121 z"},"e":{"x_min":0,"x_max":500,"ha":500,"o":"m 268 -10 q 155 -10 98 62 q 40 134 40 264 q 40 405 97 476 q 154 548 258 548 q 353 548 408 487 q 464 426 464 307 l 464 259 l 178 259 q 180 156 210 108 q 241 59 299 59 q 343 59 372 84 q 401 108 416 142 q 429 138 437 127 q 445 116 445 100 q 445 74 426 48 q 408 23 369 6 q 330 -10 268 -10 z m 180 319 l 328 319 q 328 396 312 442 q 297 488 261 488 q 224 488 203 444 q 182 401 180 319 z"},"b":{"x_min":0,"x_max":568,"ha":568,"o":"m 349 -10 q 299 -10 266 14 q 234 39 215 78 l 208 78 l 182 0 l 14 0 l 14 50 l 20 50 q 36 50 52 55 q 67 60 77 75 q 87 90 87 121 l 87 643 q 87 686 67 698 q 47 710 19 710 l 14 710 l 14 760 l 223 760 l 223 586 q 223 569 222 546 q 221 523 220 500 q 218 478 217 463 l 222 463 q 240 500 272 524 q 303 547 353 547 q 437 547 482 480 q 526 414 526 269 q 526 124 480 57 q 434 -10 349 -10 z m 310 59 q 352 59 370 114 q 389 168 389 271 q 389 377 370 428 q 352 480 309 480 q 260 480 242 427 q 223 374 223 270 q 223 168 241 114 q 259 59 310 59 z"},"%":{"x_min":0,"x_max":789,"ha":789,"o":"m 187 280 q 103 280 66 341 q 28 402 28 503 q 28 604 66 664 q 103 724 187 724 q 266 724 306 664 q 345 604 345 503 q 345 402 306 341 q 266 280 187 280 z m 210 0 l 509 714 l 577 714 l 278 0 z m 187 326 q 221 326 234 372 q 246 418 246 503 q 246 586 234 631 q 221 676 187 676 q 154 676 140 631 q 127 586 127 503 q 127 418 140 372 q 154 326 187 326 z m 602 -10 q 520 -10 482 51 q 445 112 445 213 q 445 314 482 374 q 520 434 603 434 q 682 434 722 374 q 761 314 761 213 q 761 112 722 51 q 682 -10 602 -10 z m 602 36 q 636 36 649 82 q 662 128 662 213 q 662 296 650 341 q 637 386 603 386 q 570 386 556 341 q 543 296 543 213 q 543 128 556 82 q 570 36 602 36 z"},"m":{"x_min":0,"x_max":861,"ha":861,"o":"m 16 0 l 16 50 l 22 50 q 51 50 68 62 q 86 74 86 120 l 86 422 q 86 465 69 476 q 52 488 24 488 l 21 488 l 21 536 l 207 536 l 219 462 l 224 462 q 245 509 277 528 q 309 548 360 548 q 407 548 440 528 q 473 507 488 460 l 494 460 q 514 509 549 528 q 584 548 632 548 q 701 548 740 502 q 779 456 779 355 l 779 121 q 779 74 793 62 q 807 50 836 50 l 839 50 l 839 0 l 642 0 l 642 333 q 642 397 627 432 q 612 468 575 468 q 548 468 532 448 q 515 428 508 396 q 500 363 500 324 l 500 121 q 500 74 514 62 q 528 50 557 50 l 560 50 l 560 0 l 364 0 l 364 333 q 364 397 350 432 q 336 468 298 468 q 270 468 254 446 q 238 424 230 388 q 223 353 223 312 l 223 116 q 223 73 239 62 q 255 50 284 50 l 286 50 l 286 0 z"},"#":{"x_min":0,"x_max":487,"ha":487,"o":"m 61 0 l 99 201 l 16 201 l 16 268 l 112 268 l 147 451 l 48 451 l 48 519 l 160 519 l 195 714 l 265 714 l 229 519 l 318 519 l 356 714 l 425 714 l 388 519 l 471 519 l 471 451 l 376 451 l 341 268 l 439 268 l 439 201 l 328 201 l 290 0 l 221 0 l 258 201 l 169 201 l 130 0 z m 181 268 l 272 268 l 307 451 l 217 451 z"},",":{"x_min":0,"x_max":259,"ha":259,"o":"m 42 -154 l 42 -106 q 78 -90 97 -72 q 116 -53 116 -25 q 116 -11 106 -4 q 97 4 85 12 q 73 21 64 36 q 54 50 54 78 q 54 110 73 126 q 92 143 118 143 q 156 143 176 114 q 196 86 196 36 q 196 -26 161 -77 q 126 -128 42 -154 z"},"n":{"x_min":0,"x_max":582,"ha":582,"o":"m 16 0 l 16 50 l 21 50 q 50 50 68 62 q 86 74 86 120 l 86 420 q 86 463 69 474 q 52 486 24 486 l 21 486 l 21 536 l 208 536 l 219 462 l 223 462 q 245 509 276 528 q 306 548 356 548 q 425 548 462 502 q 499 456 499 355 l 499 121 q 499 74 513 62 q 527 50 556 50 l 560 50 l 560 0 l 363 0 l 363 333 q 363 397 350 433 q 336 469 298 469 q 269 469 252 446 q 236 424 229 388 q 222 352 222 312 l 222 116 q 222 73 238 62 q 254 50 283 50 l 286 50 l 286 0 z"},"h":{"x_min":0,"x_max":583,"ha":583,"o":"m 17 0 l 17 50 l 21 50 q 49 50 68 62 q 86 74 86 120 l 86 647 q 86 674 76 688 q 66 701 52 706 q 38 710 26 710 l 14 710 l 14 760 l 223 760 l 223 577 q 223 543 221 509 q 219 475 218 465 l 224 465 q 244 505 274 526 q 305 548 357 548 q 428 548 464 502 q 500 456 500 355 l 500 121 q 500 74 514 62 q 528 50 558 50 l 560 50 l 560 0 l 364 0 l 364 333 q 364 397 349 432 q 334 468 296 468 q 268 468 252 446 q 236 425 230 390 q 223 354 223 312 l 224 116 q 224 73 240 62 q 256 50 284 50 l 287 50 l 287 0 z"},"z":{"x_min":0,"x_max":461,"ha":461,"o":"m 14 0 l 14 40 l 273 475 l 161 475 q 133 475 120 460 q 107 444 97 403 l 91 379 l 37 379 l 48 536 l 427 536 l 427 494 l 168 61 l 309 61 q 342 61 357 80 q 372 98 379 144 l 385 177 l 437 177 l 432 0 z"},"B":{"x_min":0,"x_max":600,"ha":600,"o":"m 24 0 l 24 50 l 58 50 q 80 50 92 64 q 105 77 105 115 l 105 601 q 105 641 90 652 q 76 664 57 664 l 24 664 l 24 714 l 288 714 q 412 714 476 672 q 540 630 540 538 q 540 471 505 434 q 470 398 420 381 l 420 376 q 484 363 525 318 q 566 274 566 195 q 566 0 314 0 z m 245 403 l 282 403 q 341 403 366 434 q 392 465 392 533 q 392 603 365 630 q 338 656 281 656 l 245 656 z m 245 58 l 304 58 q 361 58 388 90 q 416 121 416 198 q 416 273 390 308 q 365 344 306 344 l 245 344 z"},"K":{"x_min":0,"x_max":651,"ha":651,"o":"m 24 0 l 24 50 l 55 50 q 76 50 90 62 q 105 73 105 110 l 105 604 q 105 640 92 652 q 78 664 57 664 l 24 664 l 24 714 l 320 714 l 320 664 l 292 664 q 272 664 260 652 q 247 640 247 602 l 247 340 l 386 536 q 412 572 424 595 q 437 618 437 637 q 437 652 426 658 q 415 665 387 665 l 387 714 l 624 714 l 624 665 q 588 665 558 640 q 529 616 498 576 l 380 425 l 553 133 q 579 89 600 70 q 622 50 650 50 l 654 50 l 654 0 l 596 0 q 536 0 502 10 q 467 20 446 44 q 424 68 403 109 l 287 326 l 247 275 l 247 112 q 247 74 261 62 q 275 50 296 50 l 320 50 l 320 0 z"},"R":{"x_min":0,"x_max":622,"ha":622,"o":"m 24 0 l 24 50 l 54 50 q 74 50 90 60 q 105 71 105 112 l 105 601 q 105 642 88 653 q 72 664 54 664 l 24 664 l 24 714 l 308 714 q 440 714 496 666 q 553 618 553 527 q 553 471 536 434 q 519 396 491 373 q 463 350 431 339 l 536 133 q 558 90 577 70 q 596 50 620 50 l 625 50 l 625 0 l 595 0 q 520 0 476 17 q 432 34 406 90 l 304 311 l 247 311 l 247 112 q 247 71 260 60 q 274 50 296 50 l 320 50 l 320 0 z m 247 367 l 291 367 q 352 367 378 405 q 404 443 404 517 q 404 590 377 624 q 350 658 292 658 l 247 658 z"},"T":{"x_min":0,"x_max":571,"ha":571,"o":"m 130 0 l 130 50 l 158 50 q 182 50 198 61 q 214 72 214 116 l 214 656 l 146 656 q 107 656 92 636 q 77 615 74 582 l 67 524 l 8 524 l 12 714 l 559 714 l 563 524 l 504 524 l 498 582 q 494 615 479 636 q 464 656 425 656 l 357 656 l 357 117 q 357 73 372 62 q 388 50 414 50 l 441 50 l 441 0 z"},"P":{"x_min":0,"x_max":558,"ha":558,"o":"m 24 0 l 24 50 l 54 50 q 76 50 90 62 q 105 73 105 117 l 105 601 q 105 642 90 653 q 76 664 56 664 l 24 664 l 24 714 l 297 714 q 422 714 482 659 q 541 604 541 503 q 541 440 515 388 q 489 336 432 305 q 374 274 278 274 l 247 274 l 247 112 q 247 71 262 60 q 277 50 297 50 l 344 50 l 344 0 z m 246 330 l 270 330 q 334 330 363 369 q 392 408 392 499 q 392 580 366 619 q 341 658 283 658 l 246 658 z"},"|":{"x_min":0,"x_max":487,"ha":487,"o":"m 211 -240 l 211 760 l 275 760 l 275 -240 z"},"t":{"x_min":0,"x_max":357,"ha":357,"o":"m 217 -10 q 154 -10 118 24 q 83 59 83 147 l 83 475 l 18 475 l 18 520 q 49 522 70 534 q 92 546 106 562 q 118 578 128 601 q 138 624 145 659 l 220 659 l 220 536 l 331 536 l 331 475 l 220 475 l 220 156 q 220 109 232 88 q 245 66 276 66 q 312 66 340 75 l 340 13 q 325 6 294 -2 q 262 -10 217 -10 z"},"M":{"x_min":0,"x_max":830,"ha":830,"o":"m 24 0 l 24 50 l 51 50 q 75 50 90 62 q 105 74 105 112 l 105 601 q 105 639 90 652 q 76 664 57 664 l 24 664 l 24 714 l 279 714 l 416 211 l 549 714 l 806 714 l 806 664 l 771 664 q 753 664 740 652 q 726 640 726 602 l 726 112 q 726 74 739 62 q 752 50 775 50 l 806 50 l 806 0 l 521 0 l 521 50 l 532 50 q 561 50 574 62 q 587 75 587 115 l 587 621 l 420 0 l 345 0 l 171 620 l 171 117 q 171 73 188 62 q 205 50 236 50 l 242 50 l 242 0 z"},"g":{"x_min":0,"x_max":489,"ha":489,"o":"m 205 -237 q 102 -237 51 -202 q 0 -166 0 -98 q 0 -44 32 -13 q 65 18 118 24 q 94 34 73 54 q 52 74 52 108 q 52 140 75 164 q 98 188 133 210 q 92 226 65 266 q 38 305 38 363 q 38 451 84 500 q 129 548 226 548 q 259 548 285 540 q 311 532 332 518 q 352 540 374 558 q 396 575 427 575 q 456 575 471 558 q 486 541 486 518 q 486 496 473 478 q 460 461 426 461 q 426 481 416 492 q 405 503 394 503 q 385 503 377 500 q 369 496 363 492 q 382 471 396 440 q 409 410 409 367 q 409 289 364 240 q 320 190 226 190 q 216 190 200 191 q 183 192 175 194 q 164 187 154 172 q 145 158 145 140 q 145 120 158 112 q 170 103 189 103 l 291 103 q 379 103 420 62 q 460 22 460 -46 q 460 -135 398 -186 q 335 -237 205 -237 z m 223 245 q 262 245 275 277 q 288 309 288 365 q 288 424 275 458 q 262 492 224 492 q 187 492 173 457 q 159 422 159 364 q 159 308 173 276 q 187 245 223 245 z m 208 -180 q 282 -180 318 -152 q 353 -124 353 -76 q 353 -12 284 -12 l 182 -12 q 165 -12 148 -19 q 130 -26 118 -44 q 106 -62 106 -95 q 106 -136 133 -158 q 160 -180 208 -180 z"},"j":{"x_min":0,"x_max":306,"ha":306,"o":"m 154 630 q 122 630 100 646 q 77 663 77 698 q 77 734 100 750 q 122 766 154 766 q 185 766 208 750 q 231 734 231 698 q 231 663 208 646 q 185 630 154 630 z m -16 -240 l -16 -182 l -10 -182 q 22 -182 44 -166 q 66 -150 78 -110 q 89 -71 89 -2 l 89 419 q 89 462 70 474 q 50 486 21 486 l 17 486 l 17 536 l 225 536 l 225 -8 q 225 -98 196 -148 q 168 -199 118 -220 q 68 -240 2 -240 z"},"i":{"x_min":0,"x_max":309,"ha":309,"o":"m 149 630 q 117 630 96 646 q 74 663 74 698 q 74 734 96 750 q 117 766 149 766 q 180 766 203 750 q 226 734 226 698 q 226 663 203 646 q 180 630 149 630 z m 14 0 l 14 50 l 24 50 q 49 50 68 63 q 86 76 86 120 l 86 419 q 86 460 68 473 q 50 486 26 486 l 14 486 l 14 536 l 222 536 l 222 121 q 222 77 240 64 q 259 50 283 50 l 293 50 l 293 0 z"},"y":{"x_min":0,"x_max":505,"ha":505,"o":"m 23 -233 l 23 -177 q 83 -177 120 -156 q 156 -135 178 -96 q 200 -58 214 -6 l 59 436 q 48 466 36 475 q 24 484 4 484 l 0 484 l 0 536 l 252 536 l 252 486 l 249 486 q 221 486 209 477 q 197 468 197 451 q 197 440 200 426 q 204 413 208 399 l 260 233 q 273 193 280 162 q 286 132 288 111 q 291 134 297 159 q 303 184 308 203 l 362 396 q 366 407 369 422 q 372 438 372 450 q 372 470 358 477 q 345 484 319 485 l 315 486 l 315 536 l 505 536 l 505 486 l 502 486 q 477 486 462 471 q 448 456 435 414 l 304 4 q 282 -67 262 -114 q 241 -160 214 -186 q 187 -212 145 -222 q 103 -233 38 -233 z"},"@":{"x_min":0,"x_max":801,"ha":801,"o":"m 401 -142 q 329 -142 265 -120 q 201 -97 152 -50 q 104 -4 76 66 q 48 137 48 233 q 48 342 81 431 q 114 520 171 583 q 228 646 302 680 q 377 714 461 714 q 556 714 624 673 q 692 632 728 559 q 764 486 764 388 q 764 292 738 222 q 713 152 672 114 q 632 77 587 77 q 549 77 522 99 q 494 121 481 172 l 476 172 q 457 133 428 105 q 400 77 353 77 q 298 77 258 120 q 219 162 219 248 q 219 293 233 342 q 247 391 275 434 q 303 476 346 502 q 390 529 450 529 q 478 529 502 520 q 526 510 538 499 l 574 520 l 600 520 l 562 274 q 560 254 558 233 q 556 212 556 201 q 556 159 570 144 q 583 130 596 130 q 619 130 643 159 q 667 188 684 244 q 700 301 700 384 q 700 476 668 539 q 637 602 582 634 q 526 666 455 666 q 392 666 333 636 q 274 605 228 548 q 182 491 155 410 q 128 330 128 230 q 128 118 165 47 q 202 -24 266 -57 q 330 -90 411 -90 q 485 -90 546 -64 q 606 -38 646 -7 l 668 -46 q 620 -84 555 -113 q 490 -142 401 -142 z m 382 131 q 406 131 422 149 q 438 167 447 194 q 456 220 461 248 l 497 459 q 491 472 477 480 q 463 488 448 488 q 415 488 392 462 q 369 436 354 396 q 339 356 332 313 q 325 270 325 235 q 325 182 340 156 q 356 131 382 131 z"},".":{"x_min":0,"x_max":259,"ha":259,"o":"m 130 -7 q 99 -7 78 9 q 57 25 57 68 q 57 111 78 127 q 99 143 130 143 q 158 143 180 127 q 202 111 202 68 q 202 25 180 9 q 158 -7 130 -7 z"},"p":{"x_min":0,"x_max":564,"ha":564,"o":"m 11 -233 l 11 -182 l 22 -182 q 34 -182 48 -178 q 62 -173 72 -159 q 82 -145 82 -116 l 82 416 q 82 462 66 474 q 51 486 26 486 l 20 486 l 20 536 l 192 536 l 208 458 l 212 458 q 231 496 263 521 q 295 546 345 546 q 431 546 477 479 q 523 412 523 267 q 523 122 478 56 q 432 -11 344 -11 q 298 -11 268 10 q 238 30 220 66 l 215 66 q 216 44 218 12 q 219 -20 219 -49 l 219 -116 q 219 -145 230 -159 q 240 -173 254 -178 q 268 -182 280 -182 l 303 -182 l 303 -233 z m 305 56 q 348 56 366 110 q 385 163 385 267 q 385 368 366 422 q 348 477 307 477 q 255 477 237 422 q 219 366 219 268 q 219 162 237 109 q 255 56 305 56 z"},"X":{"x_min":0,"x_max":642,"ha":642,"o":"m 9 0 l 9 50 l 14 50 q 46 50 64 68 q 83 86 105 120 l 256 353 l 113 611 q 99 637 84 650 q 69 664 39 664 l 28 664 l 28 714 l 320 714 l 320 664 l 316 664 q 286 664 276 654 q 266 645 266 633 q 266 622 273 606 q 280 591 288 576 l 361 443 l 436 574 q 444 588 452 605 q 459 622 459 635 q 459 653 445 658 q 431 664 411 664 l 408 664 l 408 714 l 613 714 l 613 664 l 604 664 q 578 664 561 648 q 544 632 518 592 l 393 388 l 552 103 q 569 73 588 62 q 606 50 622 50 l 633 50 l 633 0 l 342 0 l 342 50 l 346 50 q 398 50 398 83 q 398 94 393 107 q 388 120 370 152 l 289 298 l 197 150 q 188 134 181 117 q 174 100 174 84 q 174 68 186 59 q 197 50 225 50 l 229 50 l 229 0 z"},"*":{"x_min":0,"x_max":431,"ha":431,"o":"m 168 368 l 197 532 l 70 428 l 30 521 l 163 564 l 30 607 l 70 700 l 197 595 l 168 760 l 266 760 l 235 596 l 362 699 l 403 606 l 270 564 l 403 522 l 362 429 l 235 532 l 266 368 z"},"Y":{"x_min":0,"x_max":608,"ha":608,"o":"m 143 0 l 143 50 l 174 50 q 200 50 217 62 q 234 74 234 117 l 234 267 l 74 611 q 60 640 49 652 q 38 664 12 664 l 0 664 l 0 714 l 294 714 l 294 664 l 282 664 q 256 664 242 652 q 229 640 229 622 q 229 610 233 595 q 237 580 242 567 l 306 427 q 320 397 329 374 q 338 350 345 327 q 354 350 366 380 q 378 409 391 441 l 441 556 q 450 577 454 593 q 457 609 457 618 q 457 643 442 654 q 428 664 399 664 l 381 664 l 381 714 l 608 714 l 608 664 l 596 664 q 574 664 560 648 q 547 632 526 586 l 378 267 l 378 118 q 378 74 394 62 q 410 50 433 50 l 469 50 l 469 0 z"},"c":{"x_min":0,"x_max":461,"ha":461,"o":"m 258 -10 q 193 -10 144 16 q 95 43 68 104 q 40 164 40 265 q 40 373 68 434 q 97 496 146 522 q 194 548 255 548 q 345 548 387 518 q 429 488 429 444 q 429 422 420 404 q 411 386 386 375 q 361 364 314 364 q 314 415 302 452 q 290 490 259 490 q 234 490 216 470 q 198 450 188 401 q 178 352 178 266 q 178 164 203 112 q 228 59 283 59 q 327 59 358 82 q 390 106 405 141 q 416 134 422 123 q 429 112 429 98 q 429 74 412 49 q 396 24 359 7 q 322 -10 258 -10 z"},"!":{"x_min":0,"x_max":336,"ha":336,"o":"m 138 222 l 90 714 l 246 714 l 198 222 z m 169 -7 q 138 -7 118 9 q 97 25 97 68 q 97 111 118 127 q 138 143 169 143 q 198 143 219 127 q 240 111 240 68 q 240 25 219 9 q 198 -7 169 -7 z"},"/":{"x_min":0,"x_max":251,"ha":251,"o":"m 0 -121 l 189 760 l 251 760 l 64 -121 z"},"[":{"x_min":0,"x_max":364,"ha":364,"o":"m 87 -128 l 87 760 l 332 760 l 332 710 l 295 710 q 265 710 244 698 q 223 685 223 638 l 223 -6 q 223 -53 244 -66 q 265 -78 295 -78 l 332 -78 l 332 -128 z"},"6":{"x_min":0,"x_max":487,"ha":487,"o":"m 255 -10 q 158 -10 98 73 q 38 156 38 334 q 38 454 64 542 q 91 629 144 676 q 198 724 280 724 q 366 724 403 691 q 440 658 440 615 q 440 583 417 562 q 394 542 339 542 q 339 592 324 630 q 310 668 275 668 q 225 668 198 597 q 170 526 166 395 q 183 411 211 424 q 239 437 284 437 q 362 437 410 382 q 458 328 458 230 q 458 159 435 105 q 412 51 367 20 q 322 -10 255 -10 z m 258 52 q 291 52 310 92 q 329 132 329 220 q 329 302 308 340 q 287 378 251 378 q 223 378 200 362 q 178 347 166 332 q 167 190 193 121 q 219 52 258 52 z"},"r":{"x_min":0,"x_max":459,"ha":459,"o":"m 16 0 l 16 50 l 20 50 q 49 50 67 62 q 85 75 85 122 l 85 418 q 85 462 68 474 q 52 486 24 486 l 21 486 l 21 536 l 199 536 l 216 441 l 220 441 q 240 491 269 519 q 298 547 351 547 q 400 547 423 524 q 446 502 446 464 q 446 421 416 399 q 386 377 334 377 q 334 418 326 438 q 318 459 293 459 q 274 459 260 442 q 247 425 239 398 q 231 371 227 340 q 223 309 223 281 l 223 117 q 223 73 240 62 q 256 50 281 50 l 309 50 l 309 0 z"},"2":{"x_min":0,"x_max":487,"ha":487,"o":"m 31 0 l 31 92 l 159 249 q 212 312 242 362 q 271 411 283 456 q 295 500 295 549 q 295 608 276 637 q 258 666 227 666 q 183 666 164 624 q 145 581 145 501 q 100 501 67 520 q 34 538 34 588 q 34 623 56 654 q 77 685 120 704 q 162 724 227 724 q 326 724 378 678 q 430 631 430 554 q 430 501 408 452 q 387 403 344 350 q 302 297 238 231 l 122 103 l 318 103 q 344 103 363 120 q 382 138 390 173 l 397 202 l 451 202 l 446 0 z"},"{":{"x_min":0,"x_max":385,"ha":385,"o":"m 276 -126 q 202 -126 164 -86 q 126 -46 126 22 l 126 193 q 126 232 112 252 q 99 273 76 280 q 53 288 24 290 l 24 346 q 68 348 97 366 q 126 385 126 443 l 126 615 q 126 685 164 722 q 202 760 276 760 l 361 760 l 361 710 l 326 710 q 289 710 277 684 q 265 659 265 611 l 265 441 q 265 394 242 364 q 220 334 170 322 l 170 316 q 220 302 242 272 q 265 242 265 196 l 265 25 q 265 -24 277 -50 q 289 -75 326 -75 l 361 -75 l 361 -126 z"},"9":{"x_min":0,"x_max":487,"ha":487,"o":"m 198 -11 q 146 -11 114 4 q 82 19 68 42 q 54 66 54 93 q 54 115 65 132 q 76 149 101 154 q 114 112 136 82 q 158 51 204 51 q 315 51 324 341 q 304 315 274 296 q 245 278 200 278 q 125 278 77 331 q 29 384 29 484 q 29 555 53 609 q 77 663 122 694 q 166 724 229 724 q 292 724 342 690 q 392 656 420 582 q 449 508 449 388 q 449 274 424 184 q 398 94 343 42 q 288 -11 198 -11 z m 239 343 q 269 344 290 362 q 310 379 324 404 q 323 543 300 602 q 276 661 236 661 q 198 661 178 617 q 158 573 158 488 q 158 418 178 381 q 198 344 239 343 z"}," ":{"x_min":0,"x_max":226,"ha":226,"o":""},"I":{"x_min":0,"x_max":351,"ha":351,"o":"m 24 0 l 24 50 l 60 50 q 78 50 92 62 q 105 74 105 112 l 105 600 q 105 639 92 652 q 78 664 60 664 l 24 664 l 24 714 l 328 714 l 328 664 l 292 664 q 272 664 259 652 q 246 639 246 600 l 246 112 q 246 76 259 63 q 272 50 292 50 l 328 50 l 328 0 z"},"H":{"x_min":0,"x_max":715,"ha":715,"o":"m 24 0 l 24 50 l 60 50 q 80 50 92 63 q 105 76 105 113 l 105 602 q 105 640 90 652 q 76 664 55 664 l 24 664 l 24 714 l 320 714 l 320 664 l 291 664 q 271 664 259 652 q 247 640 247 602 l 247 402 l 469 402 l 469 600 q 469 639 456 652 q 444 664 422 664 l 396 664 l 396 714 l 692 714 l 692 664 l 656 664 q 636 664 623 652 q 610 639 610 600 l 610 111 q 610 76 623 63 q 636 50 656 50 l 692 50 l 692 0 l 396 0 l 396 50 l 423 50 q 444 50 456 64 q 469 77 469 115 l 469 343 l 247 343 l 247 113 q 247 76 259 63 q 271 50 291 50 l 320 50 l 320 0 z"},"4":{"x_min":0,"x_max":487,"ha":487,"o":"m 155 0 l 155 50 l 179 50 q 209 50 230 62 q 251 75 251 122 l 251 189 l 12 189 l 12 244 l 254 714 l 381 714 l 381 252 l 469 252 l 469 189 l 381 189 l 381 122 q 381 75 402 62 q 423 50 452 50 l 464 50 l 464 0 z m 77 252 l 251 252 l 251 435 q 251 478 252 526 q 253 574 256 621 q 250 602 237 574 q 224 545 211 516 q 198 488 188 469 z"},"~":{"x_min":0,"x_max":465,"ha":465,"o":"m 27 263 q 28 312 38 354 q 49 397 74 424 q 99 450 143 450 q 173 450 197 434 q 221 418 256 383 q 282 358 294 346 q 307 333 322 333 q 346 333 358 360 q 370 388 372 450 l 439 450 q 438 400 427 358 q 416 315 392 289 q 367 263 324 263 q 298 263 274 276 q 251 288 214 328 q 186 358 173 370 q 160 381 146 381 q 121 381 108 353 q 96 325 94 263 z"},"D":{"x_min":0,"x_max":670,"ha":670,"o":"m 24 0 l 24 50 l 60 50 q 80 50 92 64 q 105 77 105 114 l 105 602 q 105 640 92 652 q 78 664 56 664 l 24 664 l 24 714 l 313 714 q 458 714 540 626 q 623 537 623 367 q 623 258 588 175 q 553 92 484 46 q 415 0 313 0 z m 246 59 l 293 59 q 381 59 426 141 q 472 223 472 367 q 472 512 426 584 q 381 656 293 656 l 246 656 z"},"^":{"x_min":0,"x_max":465,"ha":465,"o":"m 29 263 l 213 714 l 250 714 l 435 263 l 367 263 l 231 608 l 97 263 z"},"0":{"x_min":0,"x_max":487,"ha":487,"o":"m 244 -10 q 163 -10 116 35 q 68 80 48 162 q 28 245 28 359 q 28 472 48 554 q 69 635 116 680 q 164 724 245 724 q 322 724 368 680 q 415 636 436 554 q 457 472 457 358 q 457 245 436 162 q 414 80 367 35 q 320 -10 244 -10 z m 244 52 q 291 52 306 132 q 320 212 320 358 q 320 504 306 583 q 292 662 245 662 q 196 662 182 583 q 167 504 167 358 q 167 212 181 132 q 195 52 244 52 z"},"F":{"x_min":0,"x_max":543,"ha":543,"o":"m 24 0 l 24 50 l 52 50 q 78 50 92 62 q 105 73 105 109 l 105 604 q 105 640 92 652 q 78 664 58 664 l 24 664 l 24 714 l 509 714 l 514 532 l 452 532 l 448 579 q 439 656 384 656 l 246 656 l 246 379 l 453 379 l 453 322 l 246 322 l 246 112 q 246 75 260 62 q 274 50 300 50 l 345 50 l 345 0 z"},"`":{"x_min":0,"x_max":307,"ha":307,"o":"m 205 606 q 184 620 159 640 q 134 659 110 681 q 86 703 67 723 q 48 743 40 756 l 40 766 l 180 766 q 189 744 204 717 q 220 690 237 664 q 254 638 267 619 l 267 606 z"},"k":{"x_min":0,"x_max":558,"ha":558,"o":"m 14 0 l 14 50 l 26 50 q 38 50 52 54 q 66 59 76 74 q 87 88 87 117 l 87 647 q 87 674 76 688 q 66 701 52 706 q 38 710 26 710 l 14 710 l 14 760 l 223 760 l 223 376 q 223 358 222 334 q 221 309 220 288 q 220 268 219 265 l 326 407 q 342 428 346 440 q 351 452 351 460 q 351 488 306 488 l 306 536 l 526 536 l 526 488 q 495 488 466 466 q 437 445 404 400 l 353 332 l 468 133 q 492 92 512 71 q 533 50 554 50 l 558 50 l 558 0 l 545 0 q 480 0 442 7 q 405 14 381 35 q 357 56 334 100 l 260 242 l 223 196 l 223 116 q 223 87 234 73 q 244 59 258 54 q 272 50 284 50 l 295 50 l 295 0 z"},"u":{"x_min":0,"x_max":584,"ha":584,"o":"m 227 -10 q 154 -10 118 38 q 82 86 82 187 l 82 416 q 82 460 70 473 q 57 486 25 486 l 22 486 l 22 536 l 219 536 l 219 210 q 219 140 232 104 q 245 69 283 69 q 324 69 342 112 q 360 154 360 224 l 360 420 q 360 464 344 475 q 328 486 302 486 l 299 486 l 299 536 l 496 536 l 496 115 q 496 71 512 60 q 528 50 554 50 l 561 50 l 561 0 l 385 0 l 365 74 l 361 74 q 338 26 304 8 q 271 -10 227 -10 z"},"]":{"x_min":0,"x_max":364,"ha":364,"o":"m 32 -128 l 32 -78 l 70 -78 q 99 -78 120 -66 q 141 -53 141 -6 l 141 638 q 141 685 120 698 q 99 710 70 710 l 32 710 l 32 760 l 278 760 l 278 -128 z"},"U":{"x_min":0,"x_max":652,"ha":652,"o":"m 334 -10 q 262 -10 208 12 q 155 35 126 85 q 96 135 96 217 l 96 601 q 96 642 80 653 q 63 664 40 664 l 14 664 l 14 714 l 318 714 l 318 664 l 293 664 q 270 664 254 652 q 237 641 237 597 l 237 210 q 237 125 272 92 q 307 58 366 58 q 422 58 456 98 q 491 137 491 212 l 491 601 q 491 642 475 653 q 459 664 435 664 l 410 664 l 410 714 l 639 714 l 639 664 l 612 664 q 588 664 572 652 q 556 641 556 597 l 556 210 q 556 110 503 50 q 450 -10 334 -10 z"},"o":{"x_min":0,"x_max":536,"ha":536,"o":"m 266 -10 q 161 -10 100 59 q 40 128 40 269 q 40 548 270 548 q 375 548 435 479 q 495 410 495 269 q 495 -10 266 -10 z m 268 50 q 318 50 337 106 q 356 162 356 269 q 356 378 336 432 q 317 487 268 487 q 218 487 199 432 q 180 378 180 269 q 180 162 200 106 q 219 50 268 50 z"},"N":{"x_min":0,"x_max":687,"ha":687,"o":"m 24 0 l 24 50 l 51 50 q 75 50 90 62 q 105 73 105 117 l 105 601 q 105 642 90 653 q 75 664 55 664 l 24 664 l 24 714 l 232 714 l 527 200 l 527 601 q 527 640 512 652 q 498 664 478 664 l 446 664 l 446 714 l 674 714 l 674 664 l 643 664 q 621 664 607 651 q 593 638 593 597 l 593 0 l 498 0 l 171 564 l 171 117 q 171 73 184 62 q 197 50 220 50 l 252 50 l 252 0 z"},"+":{"x_min":0,"x_max":465,"ha":465,"o":"m 197 143 l 197 323 l 46 323 l 46 392 l 197 392 l 197 572 l 267 572 l 267 392 l 419 392 l 419 323 l 267 323 l 267 143 z"},"G":{"x_min":0,"x_max":673,"ha":673,"o":"m 370 -10 q 262 -10 190 36 q 119 82 84 164 q 48 247 48 358 q 48 466 85 548 q 122 631 194 678 q 267 724 374 724 q 482 724 538 691 q 593 658 593 609 q 593 574 565 550 q 537 527 481 527 q 481 585 454 624 q 428 663 372 663 q 279 663 238 585 q 198 507 198 358 q 198 211 240 132 q 282 54 383 54 q 414 54 444 63 l 444 214 q 444 254 430 269 q 415 284 385 284 l 372 284 l 372 335 l 644 335 l 644 284 l 635 284 q 608 284 597 269 q 586 254 586 210 l 586 42 q 535 16 482 3 q 430 -10 370 -10 z"},"q":{"x_min":0,"x_max":566,"ha":566,"o":"m 253 -233 l 253 -182 l 274 -182 q 302 -182 323 -171 q 344 -160 344 -118 l 344 -47 q 344 -16 346 18 q 348 52 349 74 l 344 74 q 325 36 294 13 q 264 -10 214 -10 q 131 -10 85 56 q 39 123 39 268 q 39 412 86 479 q 132 546 221 546 q 269 546 302 522 q 334 498 354 458 l 359 458 l 376 536 l 555 536 l 555 486 l 550 486 q 522 486 501 474 q 480 462 480 415 l 480 -119 q 480 -160 501 -171 q 522 -182 551 -182 l 558 -182 l 558 -233 z m 256 58 q 304 58 324 111 q 344 164 344 267 q 344 372 325 424 q 306 477 256 477 q 213 477 195 426 q 177 374 177 267 q 177 164 195 111 q 213 58 256 58 z"},"d":{"x_min":0,"x_max":568,"ha":568,"o":"m 216 -10 q 131 -10 85 56 q 39 123 39 267 q 39 412 85 480 q 131 547 215 547 q 264 547 294 524 q 324 502 342 468 l 347 468 q 345 493 344 524 q 344 554 344 581 l 344 646 q 344 688 323 699 q 302 710 274 710 l 266 710 l 266 760 l 480 760 l 480 124 q 480 78 498 64 q 516 50 548 50 l 554 50 l 554 0 l 379 0 l 357 81 l 352 81 q 332 39 300 14 q 268 -10 216 -10 z m 256 59 q 306 59 325 113 q 344 167 344 268 q 344 370 325 424 q 306 479 256 479 q 213 479 195 424 q 177 370 177 267 q 177 163 195 111 q 213 59 256 59 z"},"1":{"x_min":0,"x_max":487,"ha":487,"o":"m 79 0 l 79 50 l 143 50 q 168 50 183 63 q 198 76 198 117 l 198 620 q 166 576 138 550 q 111 523 85 523 q 65 523 50 542 q 35 560 35 592 q 60 600 93 616 q 126 632 169 668 l 230 718 l 330 718 l 330 117 q 330 82 343 66 q 356 50 385 50 l 440 50 l 440 0 z"},"5":{"x_min":0,"x_max":487,"ha":487,"o":"m 214 -10 q 148 -10 108 8 q 69 25 52 52 q 34 80 34 109 q 34 141 54 158 q 74 176 105 176 q 105 147 114 119 q 122 91 143 72 q 164 54 199 54 q 228 54 252 69 q 276 84 290 120 q 305 156 305 219 q 305 296 274 334 q 244 371 189 371 q 158 371 134 364 q 111 358 91 351 l 56 367 l 86 714 l 412 714 l 416 540 l 364 540 l 356 570 q 350 591 344 602 q 338 612 317 612 l 137 612 l 121 417 q 136 424 164 428 q 192 433 216 433 q 319 433 380 380 q 442 326 442 219 q 442 158 421 114 q 400 70 366 43 q 332 16 292 3 q 252 -10 214 -10 z"}}}
